<?xml version="1.0" encoding="UTF-8" standalone="no"?>
<!DOCTYPE svg PUBLIC "-//W3C//DTD SVG 1.1//EN"
 "http://www.w3.org/Graphics/SVG/1.1/DTD/svg11.dtd">
<!-- Generated by graphviz version 5.0.0 (20220707.1540)
 -->
<!-- Title: dependencies Pages: 1 -->
<svg width="1083pt" height="247pt"
 viewBox="0.00 0.00 1083.00 246.80" xmlns="http://www.w3.org/2000/svg" xmlns:xlink="http://www.w3.org/1999/xlink">
<g id="graph0" class="graph" transform="scale(1 1) rotate(0) translate(4 242.8)">
<title>dependencies</title>
<polygon fill="white" stroke="transparent" points="-4,4 -4,-242.8 1079,-242.8 1079,4 -4,4"/>
<text text-anchor="middle" x="537.5" y="-8.2" font-family="sans-serif" font-size="14.00">dependencies</text>
<g id="clust1" class="cluster">
<title>cluster_AppModule</title>
<polygon fill="none" stroke="black" stroke-dasharray="1,5" points="8,-32.8 8,-230.8 1067,-230.8 1067,-32.8 8,-32.8"/>
</g>
<g id="clust11" class="cluster">
<title>cluster_AppModule_bootstrap</title>
<polygon fill="none" stroke="black" points="471,-170.8 471,-222.8 595,-222.8 595,-170.8 471,-170.8"/>
</g>
<g id="clust9" class="cluster">
<title>cluster_AppModule_imports</title>
<polygon fill="none" stroke="black" points="915,-40.8 915,-92.8 1059,-92.8 1059,-40.8 915,-40.8"/>
</g>
<g id="clust2" class="cluster">
<title>cluster_AppModule_declarations</title>
<polygon fill="none" stroke="black" points="16,-40.8 16,-92.8 907,-92.8 907,-40.8 16,-40.8"/>
</g>
<!-- AppComponent -->
<g id="node1" class="node">
<title>AppComponent</title>
<polygon fill="#ffffb3" stroke="black" points="898.94,-84.8 793.06,-84.8 793.06,-48.8 898.94,-48.8 898.94,-84.8"/>
<text text-anchor="middle" x="846" y="-62.6" font-family="Times,serif" font-size="14.00">AppComponent</text>
</g>
<!-- AppModule -->
<g id="node7" class="node">
<title>AppModule</title>
<polygon fill="#8dd3c7" stroke="black" points="574.66,-149.8 571.66,-153.8 550.66,-153.8 547.66,-149.8 491.34,-149.8 491.34,-113.8 574.66,-113.8 574.66,-149.8"/>
<text text-anchor="middle" x="533" y="-127.6" font-family="Times,serif" font-size="14.00">AppModule</text>
</g>
<!-- AppComponent&#45;&gt;AppModule -->
<g id="edge1" class="edge">
<title>AppComponent&#45;&gt;AppModule</title>
<path fill="none" stroke="black" d="M846,-84.91C846,-104.14 846,-131.8 846,-131.8 846,-131.8 584.89,-131.8 584.89,-131.8"/>
<polygon fill="black" stroke="black" points="584.89,-128.3 574.89,-131.8 584.89,-135.3 584.89,-128.3"/>
</g>
<!-- AuftragssucheComponent -->
<g id="node2" class="node">
<title>AuftragssucheComponent</title>
<polygon fill="#ffffb3" stroke="black" points="775.19,-84.8 612.81,-84.8 612.81,-48.8 775.19,-48.8 775.19,-84.8"/>
<text text-anchor="middle" x="694" y="-62.6" font-family="Times,serif" font-size="14.00">AuftragssucheComponent</text>
</g>
<!-- AuftragssucheComponent&#45;&gt;AppModule -->
<g id="edge2" class="edge">
<title>AuftragssucheComponent&#45;&gt;AppModule</title>
<path fill="none" stroke="black" d="M694,-84.83C694,-101.2 694,-122.8 694,-122.8 694,-122.8 584.88,-122.8 584.88,-122.8"/>
<polygon fill="black" stroke="black" points="584.88,-119.3 574.88,-122.8 584.88,-126.3 584.88,-119.3"/>
</g>
<!-- SidebarComponent -->
<g id="node3" class="node">
<title>SidebarComponent</title>
<polygon fill="#ffffb3" stroke="black" points="595.1,-84.8 470.9,-84.8 470.9,-48.8 595.1,-48.8 595.1,-84.8"/>
<text text-anchor="middle" x="533" y="-62.6" font-family="Times,serif" font-size="14.00">SidebarComponent</text>
</g>
<!-- SidebarComponent&#45;&gt;AppModule -->
<g id="edge3" class="edge">
<title>SidebarComponent&#45;&gt;AppModule</title>
<path fill="none" stroke="black" d="M533,-84.91C533,-84.91 533,-103.79 533,-103.79"/>
<polygon fill="black" stroke="black" points="529.5,-103.79 533,-113.79 536.5,-103.79 529.5,-103.79"/>
</g>
<!-- TableComponent -->
<g id="node4" class="node">
<title>TableComponent</title>
<polygon fill="#ffffb3" stroke="black" points="452.7,-84.8 339.3,-84.8 339.3,-48.8 452.7,-48.8 452.7,-84.8"/>
<text text-anchor="middle" x="396" y="-62.6" font-family="Times,serif" font-size="14.00">TableComponent</text>
</g>
<!-- TableComponent&#45;&gt;AppModule -->
<g id="edge4" class="edge">
<title>TableComponent&#45;&gt;AppModule</title>
<path fill="none" stroke="black" d="M396,-84.83C396,-101.2 396,-122.8 396,-122.8 396,-122.8 481.15,-122.8 481.15,-122.8"/>
<polygon fill="black" stroke="black" points="481.15,-126.3 491.15,-122.8 481.15,-119.3 481.15,-126.3"/>
</g>
<!-- WelcomeComponent -->
<g id="node5" class="node">
<title>WelcomeComponent</title>
<polygon fill="#ffffb3" stroke="black" points="321.47,-84.8 186.53,-84.8 186.53,-48.8 321.47,-48.8 321.47,-84.8"/>
<text text-anchor="middle" x="254" y="-62.6" font-family="Times,serif" font-size="14.00">WelcomeComponent</text>
</g>
<!-- WelcomeComponent&#45;&gt;AppModule -->
<g id="edge5" class="edge">
<title>WelcomeComponent&#45;&gt;AppModule</title>
<path fill="none" stroke="black" d="M254,-84.91C254,-104.14 254,-131.8 254,-131.8 254,-131.8 481.23,-131.8 481.23,-131.8"/>
<polygon fill="black" stroke="black" points="481.23,-135.3 491.23,-131.8 481.23,-128.3 481.23,-135.3"/>
</g>
<!-- WillkomenComponent -->
<g id="node6" class="node">
<title>WillkomenComponent</title>
<polygon fill="#ffffb3" stroke="black" points="168.32,-84.8 23.68,-84.8 23.68,-48.8 168.32,-48.8 168.32,-84.8"/>
<text text-anchor="middle" x="96" y="-62.6" font-family="Times,serif" font-size="14.00">WillkomenComponent</text>
</g>
<!-- WillkomenComponent&#45;&gt;AppModule -->
<g id="edge6" class="edge">
<title>WillkomenComponent&#45;&gt;AppModule</title>
<path fill="none" stroke="black" d="M96,-85.09C96,-107.01 96,-140.8 96,-140.8 96,-140.8 481.1,-140.8 481.1,-140.8"/>
<polygon fill="black" stroke="black" points="481.1,-144.3 491.1,-140.8 481.1,-137.3 481.1,-144.3"/>
</g>
<!-- AppComponent  -->
<g id="node9" class="node">
<title>AppComponent </title>
<polygon fill="#80b1d3" stroke="black" points="587.44,-214.8 478.56,-214.8 478.56,-178.8 587.44,-178.8 587.44,-214.8"/>
<text text-anchor="middle" x="533" y="-192.6" font-family="Times,serif" font-size="14.00">AppComponent </text>
</g>
<!-- AppModule&#45;&gt;AppComponent  -->
<g id="edge8" class="edge">
<title>AppModule&#45;&gt;AppComponent </title>
<path fill="none" stroke="black" stroke-dasharray="1,5" d="M533,-149.91C533,-149.91 533,-168.79 533,-168.79"/>
<polygon fill="black" stroke="black" points="529.5,-168.79 533,-178.79 536.5,-168.79 529.5,-168.79"/>
</g>
<!-- AppRoutingModule -->
<g id="node8" class="node">
<title>AppRoutingModule</title>
<polygon fill="#8dd3c7" stroke="black" points="1051.28,-84.8 1048.28,-88.8 1027.28,-88.8 1024.28,-84.8 922.72,-84.8 922.72,-48.8 1051.28,-48.8 1051.28,-84.8"/>
<text text-anchor="middle" x="987" y="-62.6" font-family="Times,serif" font-size="14.00">AppRoutingModule</text>
</g>
<!-- AppRoutingModule&#45;&gt;AppModule -->
<g id="edge7" class="edge">
<title>AppRoutingModule&#45;&gt;AppModule</title>
<path fill="none" stroke="black" d="M987,-85.09C987,-107.01 987,-140.8 987,-140.8 987,-140.8 584.9,-140.8 584.9,-140.8"/>
<polygon fill="black" stroke="black" points="584.9,-137.3 574.9,-140.8 584.9,-144.3 584.9,-137.3"/>
</g>
</g>
</svg>
