<?xml version="1.0" encoding="UTF-8" standalone="no"?>
<!DOCTYPE svg PUBLIC "-//W3C//DTD SVG 1.1//EN"
 "http://www.w3.org/Graphics/SVG/1.1/DTD/svg11.dtd">
<!-- Generated by graphviz version 5.0.0 (20220707.1540)
 -->
<!-- Title: dependencies Pages: 1 -->
<svg width="1083pt" height="247pt"
 viewBox="0.00 0.00 1083.00 246.80" xmlns="http://www.w3.org/2000/svg" xmlns:xlink="http://www.w3.org/1999/xlink">
<g id="graph0" class="graph" transform="scale(1 1) rotate(0) translate(4 242.8)">
<title>dependencies</title>
<polygon fill="white" stroke="transparent" points="-4,4 -4,-242.8 1079,-242.8 1079,4 -4,4"/>
<text text-anchor="middle" x="537.5" y="-8.2" font-family="sans-serif" font-size="14.00">dependencies</text>
<g id="clust1" class="cluster">
<title>cluster_AppModule</title>
<polygon fill="none" stroke="black" stroke-dasharray="1,5" points="8,-32.8 8,-230.8 1067,-230.8 1067,-32.8 8,-32.8"/>
</g>
<g id="clust2" class="cluster">
<title>cluster_AppModule_declarations</title>
<polygon fill="none" stroke="black" points="168,-40.8 168,-92.8 1059,-92.8 1059,-40.8 168,-40.8"/>
</g>
<g id="clust9" class="cluster">
<title>cluster_AppModule_imports</title>
<polygon fill="none" stroke="black" points="16,-40.8 16,-92.8 160,-92.8 160,-40.8 16,-40.8"/>
</g>
<g id="clust11" class="cluster">
<title>cluster_AppModule_bootstrap</title>
<polygon fill="none" stroke="black" points="486,-170.8 486,-222.8 610,-222.8 610,-170.8 486,-170.8"/>
</g>
<!-- AppComponent -->
<g id="node1" class="node">
<title>AppComponent</title>
<polygon fill="#ffffb3" stroke="black" points="1050.94,-84.8 945.06,-84.8 945.06,-48.8 1050.94,-48.8 1050.94,-84.8"/>
<text text-anchor="middle" x="998" y="-62.6" font-family="Times,serif" font-size="14.00">AppComponent</text>
</g>
<!-- AppModule -->
<g id="node7" class="node">
<title>AppModule</title>
<polygon fill="#8dd3c7" stroke="black" points="589.66,-149.8 586.66,-153.8 565.66,-153.8 562.66,-149.8 506.34,-149.8 506.34,-113.8 589.66,-113.8 589.66,-149.8"/>
<text text-anchor="middle" x="548" y="-127.6" font-family="Times,serif" font-size="14.00">AppModule</text>
</g>
<!-- AppComponent&#45;&gt;AppModule -->
<g id="edge1" class="edge">
<title>AppComponent&#45;&gt;AppModule</title>
<path fill="none" stroke="black" d="M998,-85.09C998,-107.01 998,-140.8 998,-140.8 998,-140.8 599.93,-140.8 599.93,-140.8"/>
<polygon fill="black" stroke="black" points="599.93,-137.3 589.93,-140.8 599.93,-144.3 599.93,-137.3"/>
</g>
<!-- AuftragssucheComponent -->
<g id="node2" class="node">
<title>AuftragssucheComponent</title>
<polygon fill="#ffffb3" stroke="black" points="927.19,-84.8 764.81,-84.8 764.81,-48.8 927.19,-48.8 927.19,-84.8"/>
<text text-anchor="middle" x="846" y="-62.6" font-family="Times,serif" font-size="14.00">AuftragssucheComponent</text>
</g>
<!-- AuftragssucheComponent&#45;&gt;AppModule -->
<g id="edge2" class="edge">
<title>AuftragssucheComponent&#45;&gt;AppModule</title>
<path fill="none" stroke="black" d="M846,-84.91C846,-104.14 846,-131.8 846,-131.8 846,-131.8 599.75,-131.8 599.75,-131.8"/>
<polygon fill="black" stroke="black" points="599.75,-128.3 589.75,-131.8 599.75,-135.3 599.75,-128.3"/>
</g>
<!-- SidebarComponent -->
<g id="node3" class="node">
<title>SidebarComponent</title>
<polygon fill="#ffffb3" stroke="black" points="747.1,-84.8 622.9,-84.8 622.9,-48.8 747.1,-48.8 747.1,-84.8"/>
<text text-anchor="middle" x="685" y="-62.6" font-family="Times,serif" font-size="14.00">SidebarComponent</text>
</g>
<!-- SidebarComponent&#45;&gt;AppModule -->
<g id="edge3" class="edge">
<title>SidebarComponent&#45;&gt;AppModule</title>
<path fill="none" stroke="black" d="M685,-84.83C685,-101.2 685,-122.8 685,-122.8 685,-122.8 599.85,-122.8 599.85,-122.8"/>
<polygon fill="black" stroke="black" points="599.85,-119.3 589.85,-122.8 599.85,-126.3 599.85,-119.3"/>
</g>
<!-- TableComponent -->
<g id="node4" class="node">
<title>TableComponent</title>
<polygon fill="#ffffb3" stroke="black" points="604.7,-84.8 491.3,-84.8 491.3,-48.8 604.7,-48.8 604.7,-84.8"/>
<text text-anchor="middle" x="548" y="-62.6" font-family="Times,serif" font-size="14.00">TableComponent</text>
</g>
<!-- TableComponent&#45;&gt;AppModule -->
<g id="edge4" class="edge">
<title>TableComponent&#45;&gt;AppModule</title>
<path fill="none" stroke="black" d="M548,-84.91C548,-84.91 548,-103.79 548,-103.79"/>
<polygon fill="black" stroke="black" points="544.5,-103.79 548,-113.79 551.5,-103.79 544.5,-103.79"/>
</g>
<!-- WelcomeComponent -->
<g id="node5" class="node">
<title>WelcomeComponent</title>
<polygon fill="#ffffb3" stroke="black" points="473.47,-84.8 338.53,-84.8 338.53,-48.8 473.47,-48.8 473.47,-84.8"/>
<text text-anchor="middle" x="406" y="-62.6" font-family="Times,serif" font-size="14.00">WelcomeComponent</text>
</g>
<!-- WelcomeComponent&#45;&gt;AppModule -->
<g id="edge5" class="edge">
<title>WelcomeComponent&#45;&gt;AppModule</title>
<path fill="none" stroke="black" d="M406,-84.83C406,-101.2 406,-122.8 406,-122.8 406,-122.8 496.16,-122.8 496.16,-122.8"/>
<polygon fill="black" stroke="black" points="496.16,-126.3 506.16,-122.8 496.16,-119.3 496.16,-126.3"/>
</g>
<!-- WillkomenComponent -->
<g id="node6" class="node">
<title>WillkomenComponent</title>
<polygon fill="#ffffb3" stroke="black" points="320.32,-84.8 175.68,-84.8 175.68,-48.8 320.32,-48.8 320.32,-84.8"/>
<text text-anchor="middle" x="248" y="-62.6" font-family="Times,serif" font-size="14.00">WillkomenComponent</text>
</g>
<!-- WillkomenComponent&#45;&gt;AppModule -->
<g id="edge6" class="edge">
<title>WillkomenComponent&#45;&gt;AppModule</title>
<path fill="none" stroke="black" d="M248,-84.91C248,-104.14 248,-131.8 248,-131.8 248,-131.8 496.29,-131.8 496.29,-131.8"/>
<polygon fill="black" stroke="black" points="496.29,-135.3 506.29,-131.8 496.29,-128.3 496.29,-135.3"/>
</g>
<!-- AppComponent  -->
<g id="node9" class="node">
<title>AppComponent </title>
<polygon fill="#80b1d3" stroke="black" points="602.44,-214.8 493.56,-214.8 493.56,-178.8 602.44,-178.8 602.44,-214.8"/>
<text text-anchor="middle" x="548" y="-192.6" font-family="Times,serif" font-size="14.00">AppComponent </text>
</g>
<!-- AppModule&#45;&gt;AppComponent  -->
<g id="edge8" class="edge">
<title>AppModule&#45;&gt;AppComponent </title>
<path fill="none" stroke="black" stroke-dasharray="1,5" d="M548,-149.91C548,-149.91 548,-168.79 548,-168.79"/>
<polygon fill="black" stroke="black" points="544.5,-168.79 548,-178.79 551.5,-168.79 544.5,-168.79"/>
</g>
<!-- AppRoutingModule -->
<g id="node8" class="node">
<title>AppRoutingModule</title>
<polygon fill="#8dd3c7" stroke="black" points="152.28,-84.8 149.28,-88.8 128.28,-88.8 125.28,-84.8 23.72,-84.8 23.72,-48.8 152.28,-48.8 152.28,-84.8"/>
<text text-anchor="middle" x="88" y="-62.6" font-family="Times,serif" font-size="14.00">AppRoutingModule</text>
</g>
<!-- AppRoutingModule&#45;&gt;AppModule -->
<g id="edge7" class="edge">
<title>AppRoutingModule&#45;&gt;AppModule</title>
<path fill="none" stroke="black" d="M88,-85.09C88,-107.01 88,-140.8 88,-140.8 88,-140.8 495.96,-140.8 495.96,-140.8"/>
<polygon fill="black" stroke="black" points="495.96,-144.3 505.96,-140.8 495.96,-137.3 495.96,-144.3"/>
</g>
</g>
</svg>
